<svg xmlns="http://www.w3.org/2000/svg" viewBox="0 0 336 371"><defs><style>.cls-1{fill:#f7a48b;}.cls-2{fill:#af6452;}.cls-3{fill:#63c6c6;}.cls-4{fill:#350019;}.cls-5{fill:#ad0053;}.cls-6{fill:#f4f4f4;}.cls-7{fill:#cc6740;}</style></defs><g id="Layer_2" data-name="Layer 2"><g id="Layer_1-2" data-name="Layer 1"><ellipse class="cls-1" cx="308.15" cy="143.19" rx="27.85" ry="27.89"/><ellipse class="cls-2" cx="308.15" cy="143.19" rx="15.78" ry="15.81"/><ellipse class="cls-1" cx="27.85" cy="143.19" rx="27.85" ry="27.89"/><ellipse class="cls-2" cx="27.85" cy="143.19" rx="15.78" ry="15.81"/><rect class="cls-3" x="27.85" width="280.31" height="371" rx="140.15"/><path class="cls-4" d="M203.27,287.32a39.62,39.62,0,0,1-7.94,24.06c-6.12,8-15.26,13.13-25.47,13.13-11.3,0-21.29-6.24-27.34-15.8a39.94,39.94,0,0,1-6.08-21.39,40.77,40.77,0,0,1,3-15.5c5.28-12.8,16.9-21.7,30.39-21.7s25.1,8.9,30.38,21.7A40.79,40.79,0,0,1,203.27,287.32Z"/><path class="cls-5" d="M195.33,311.38c-6.12,8-15.26,13.13-25.47,13.13-11.3,0-21.29-6.24-27.34-15.8,6.13-8,15.27-13.13,25.48-13.13C179.3,295.58,189.28,301.82,195.33,311.38Z"/><path class="cls-6" d="M200.24,271.82H139.47c5.28-12.8,16.9-21.7,30.39-21.7S195,259,200.24,271.82Z"/><path class="cls-7" d="M244.54,303.66l-93.34-60c-11.32-7.28-15.2-23.39-8.66-36l7.72-14.89c6.54-12.6,21-16.92,32.34-9.65l93.34,60c11.32,7.27,15.2,23.39,8.66,36L276.88,294C270.34,306.62,255.87,310.94,244.54,303.66Z"/><path class="cls-7" d="M192.22,243.68l-93.34,60c-11.32,7.28-25.8,3-32.33-9.64l-7.73-14.89c-6.53-12.6-2.65-28.72,8.67-36l93.34-60c11.32-7.27,25.8-3,32.33,9.65l7.73,14.89C207.42,220.29,203.54,236.4,192.22,243.68Z"/><rect class="cls-1" x="136.9" y="110.65" width="62.79" height="135.21" rx="25.5"/><ellipse cx="234.83" cy="143.19" rx="15.78" ry="15.81"/><ellipse cx="105.81" cy="143.19" rx="15.78" ry="15.81"/><rect class="cls-7" x="57.55" y="92.05" width="69.61" height="23.25" rx="11.6"/><rect class="cls-7" x="209.77" y="92.05" width="64.04" height="23.25" rx="11.6"/></g></g></svg>