<?xml version="1.0" encoding="utf-8"?>
<!-- Generator: Adobe Illustrator 24.2.3, SVG Export Plug-In . SVG Version: 6.00 Build 0)  -->
<svg version="1.1" id="Layer_1" xmlns="http://www.w3.org/2000/svg" xmlns:xlink="http://www.w3.org/1999/xlink" x="0px" y="0px"
	 viewBox="0 0 81 86.6" style="enable-background:new 0 0 81 86.6;" xml:space="preserve">
<style type="text/css">
	.st0{fill:#FFFFFF;}
</style>
<g id="Layer_2_1_">
	<g id="Layer_1-2">
		<path class="st0" d="M14.2,39.9c-2,3.5-0.8,7.9,2.6,9.9l53.3,30.8c1.1,0.6,2.3,1,3.6,1c4,0,7.2-3.2,7.2-7.2V12.7
			c0-1.3-0.3-2.5-1-3.6c-2-3.5-6.4-4.6-9.9-2.6L16.8,37.3C15.8,37.9,14.8,38.8,14.2,39.9z"/>
		<path class="st0" d="M13.2,4.9v76.8c0,2.7-2.2,4.9-4.9,4.9H4.9c-2.7,0-4.9-2.2-4.9-4.9L0,4.9C0,2.2,2.2,0,4.9,0l3.4,0
			C11,0,13.2,2.2,13.2,4.9z"/>
	</g>
</g>
</svg>
