<svg xmlns="http://www.w3.org/2000/svg" viewBox="0 0 176.65 176.65"><defs><style>.cls-1{fill:#fff;}.cls-2{fill:#fefefe;}</style></defs><g id="Layer_2" data-name="Layer 2"><g id="Layer_1-2" data-name="Layer 1"><circle class="cls-1" cx="88.33" cy="88.33" r="88.33"/><path class="cls-2" d="M121.21,119.8q-44.07,0-88.16,0c-.91,0-2.17.79-2.8-.65,1.3-1.72,3.21-1.68,5.08-1.69,7.58-.06,15.16,0,22.73,0,16-.09,27.52-10.61,29.32-26.45.87-7.56.21-14.8-3.37-21.59-5.24-9.94-13.77-14.84-24.9-15.19-7.92-.25-15.85,0-23.78-.07-1.87,0-3.78,0-5.08-1.7.25-.43-.5-1.2.36-1.36a14.17,14.17,0,0,1,2.44,0q59.13,0,118.25-.06c2.4,0,2.88.46,2.87,2.84q-.18,31.8,0,63.59c0,2.08-.41,2.58-2.51,2.5-4.77-.2-9.56-.07-14.34-.07-.48-2,1.26-2.22,2.43-2.7a40.48,40.48,0,0,0,7.78-3.91c1.75-1.21,3.85-2.61,2.26-5s-3.77-1.12-5.5.13a23.55,23.55,0,0,1-17.5,4.27c-9.94-1.27-16.3-7.09-19.47-16.25a30.54,30.54,0,0,1,1.53-24.62c6.35-12.52,21.11-16.79,33.3-9.62.7.41,1.38.86,2.12,1.2,1.79.81,3.48.81,4.59-1s.08-3.07-1.32-4.15a16.81,16.81,0,0,0-4.89-2.65c-8.92-3-17.89-3.23-26.67.26-10,4-15.27,12.05-17,22.18-1.24,7.18-1.21,14.56,1.39,21.61,3,8.16,8.44,14,16.78,17C118.72,117.13,121.4,116.83,121.21,119.8Z"/><path d="M30.25,52.39c9.91,0,19.82-.14,29.73,0,15.41.28,27.57,12.4,29.16,27.72.88,8.56,0,16.5-4.21,24C79.6,113.61,71.24,118.47,60.67,119c-10.11.51-20.27.11-30.42.11Z"/><path d="M121.21,119.8c-4.44-1.83-9.08-3-13-6.17a28,28,0,0,1-10.5-16.69c-2-10.16-2.17-20.45,3.25-30s13.88-14.61,24.84-15.18c5.72-.29,11.43-.39,17,1.85,3.38,1.35,6.08,3.52,9.08,5.34.52.31,1,.88.78,1.42A13.45,13.45,0,0,1,148.3,66c-1.54,1-3.45.28-4.79-.9a19.71,19.71,0,0,0-13.59-4.81c-7.75.27-14.68,3.14-18.71,10.63-6,11.21-5.31,22.1,1.77,32.45,2.93,4.29,7.65,6.49,12.75,7.38a22.56,22.56,0,0,0,19.62-5.42c2.08-1.8,4.36-1.11,6,1,1.42,1.87,3.14,3.51.29,6-4.23,3.67-9.25,5.55-14.32,7.47Z"/><path class="cls-2" d="M40.75,85.43c0-7.52.09-15.05-.06-22.57,0-2.3.68-2.93,2.94-2.87,5.9.16,11.87-.43,17.65.93C70.18,63,75.4,69.05,77.54,77.6c2.2,8.74,1.32,17.24-3.94,24.83-3.49,5-8.48,7.6-14.67,8.44-5,.68-10,.32-14.9.64-2.52.16-3.43-.45-3.35-3.17C40.88,100.71,40.75,93.06,40.75,85.43Z"/><path class="cls-2" d="M121.21,119.8q-44.07,0-88.16,0c-.91,0-2.17.79-2.8-.65,1.3-1.72,3.21-1.68,5.08-1.69,7.58-.06,15.16,0,22.73,0,16-.09,27.52-10.61,29.32-26.45.87-7.56.21-14.8-3.37-21.59-5.24-9.94-13.77-14.84-24.9-15.19-7.92-.25-15.85,0-23.78-.07-1.87,0-3.78,0-5.08-1.7.25-.43-.5-1.2.36-1.36a14.17,14.17,0,0,1,2.44,0q59.13,0,118.25-.06c2.4,0,2.88.46,2.87,2.84q-.18,31.8,0,63.59c0,2.08-.41,2.58-2.51,2.5-4.77-.2-9.56-.07-14.34-.07-.48-2,1.26-2.22,2.43-2.7a40.48,40.48,0,0,0,7.78-3.91c1.75-1.21,3.85-2.61,2.26-5s-3.77-1.12-5.5.13a23.55,23.55,0,0,1-17.5,4.27c-9.94-1.27-16.3-7.09-19.47-16.25a30.54,30.54,0,0,1,1.53-24.62c6.35-12.52,21.11-16.79,33.3-9.62.7.41,1.38.86,2.12,1.2,1.79.81,3.48.81,4.59-1s.08-3.07-1.32-4.15a16.81,16.81,0,0,0-4.89-2.65c-8.92-3-17.89-3.23-26.67.26-10,4-15.27,12.05-17,22.18-1.24,7.18-1.21,14.56,1.39,21.61,3,8.16,8.44,14,16.78,17C118.72,117.13,121.4,116.83,121.21,119.8Z"/><path d="M30.25,52.39c9.91,0,19.82-.14,29.73,0,15.41.28,27.57,12.4,29.16,27.72.88,8.56,0,16.5-4.21,24C79.6,113.61,71.24,118.47,60.67,119c-10.11.51-20.27.11-30.42.11Z"/><path d="M121.21,119.8c-4.44-1.83-9.08-3-13-6.17a28,28,0,0,1-10.5-16.69c-2-10.16-2.17-20.45,3.25-30s13.88-14.61,24.84-15.18c5.72-.29,11.43-.39,17,1.85,3.38,1.35,6.08,3.52,9.08,5.34.52.31,1,.88.78,1.42A13.45,13.45,0,0,1,148.3,66c-1.54,1-3.45.28-4.79-.9a19.71,19.71,0,0,0-13.59-4.81c-7.75.27-14.68,3.14-18.71,10.63-6,11.21-5.31,22.1,1.77,32.45,2.93,4.29,7.65,6.49,12.75,7.38a22.56,22.56,0,0,0,19.62-5.42c2.08-1.8,4.36-1.11,6,1,1.42,1.87,3.14,3.51.29,6-4.23,3.67-9.25,5.55-14.32,7.47Z"/><path class="cls-2" d="M40.75,85.43c0-7.52.09-15.05-.06-22.57,0-2.3.68-2.93,2.94-2.87,5.9.16,11.87-.43,17.65.93C70.18,63,75.4,69.05,77.54,77.6c2.2,8.74,1.32,17.24-3.94,24.83-3.49,5-8.48,7.6-14.67,8.44-5,.68-10,.32-14.9.64-2.52.16-3.43-.45-3.35-3.17C40.88,100.71,40.75,93.06,40.75,85.43Z"/></g></g></svg>