<svg xmlns="http://www.w3.org/2000/svg" viewBox="0 0 372 377.06"><defs><style>.cls-1{fill:#f9bfb2;}.cls-2{fill:#373a51;}.cls-3{fill:none;stroke:#61688e;stroke-linecap:round;stroke-miterlimit:10;stroke-width:15px;}</style></defs><g id="Layer_2" data-name="Layer 2"><g id="Layer_1-2" data-name="Layer 1"><path class="cls-1" d="M212.49,368.71,305,300.79C338.56,276.17,321.15,223,279.53,223H94.47c-41.62,0-59,53.17-25.48,77.79l92.52,67.92A43.09,43.09,0,0,0,212.49,368.71Z"/><path class="cls-1" d="M57.49,90h259A6.5,6.5,0,0,1,323,96.47V264.3H51V96.49A6.5,6.5,0,0,1,57.49,90Z"/><circle class="cls-2" cx="63" cy="90" r="63"/><rect class="cls-2" x="84" width="288" height="110.83" rx="55.41"/><path class="cls-3" d="M276,21c36.13,0,65.42,24.81,65.42,55.41h0"/><path class="cls-3" d="M245,281c-9.31,32.16-38.22,52-64.58,44.41h0"/><circle cx="126" cy="205" r="17"/><circle cx="245" cy="205" r="17"/><path class="cls-2" d="M101.5,153h50A12.5,12.5,0,0,1,164,165.5h0A12.5,12.5,0,0,1,151.5,178h-50A12.5,12.5,0,0,1,89,165.5h0A12.5,12.5,0,0,1,101.5,153Z"/><path class="cls-2" d="M220.5,153h50A12.5,12.5,0,0,1,283,165.5h0A12.5,12.5,0,0,1,270.5,178h-50A12.5,12.5,0,0,1,208,165.5h0A12.5,12.5,0,0,1,220.5,153Z"/></g></g></svg>