<?xml version="1.0" encoding="utf-8"?>
<!-- Generator: Adobe Illustrator 24.2.3, SVG Export Plug-In . SVG Version: 6.00 Build 0)  -->
<svg version="1.1" id="Layer_1" xmlns="http://www.w3.org/2000/svg" xmlns:xlink="http://www.w3.org/1999/xlink" x="0px" y="0px"
	 viewBox="0 0 81 86.6" style="enable-background:new 0 0 81 86.6;" xml:space="preserve">
<style type="text/css">
	.st0{fill:#FFFFFF;}
</style>
<g id="Layer_2_1_">
	<g id="Layer_1-2">
		<path class="st0" d="M64.1,37.3L10.9,6.5C7.4,4.5,3,5.6,1,9.1c-0.7,1.1-1,2.3-1,3.6l0,61.7c0,4,3.2,7.2,7.2,7.2
			c1.3,0,2.5-0.4,3.6-1l53.3-30.8c3.4-2,4.6-6.4,2.6-9.9C66.1,38.8,65.1,37.9,64.1,37.3z"/>
		<path class="st0" d="M72.6,0L76,0c2.7,0,4.9,2.2,4.9,4.9v76.8c0,2.7-2.2,4.9-4.9,4.9h-3.4c-2.7,0-4.9-2.2-4.9-4.9V4.9
			C67.7,2.2,69.9,0,72.6,0z"/>
	</g>
</g>
</svg>
